<?xml version="1.0" encoding="utf-8"?>
<!-- Generator: Adobe Illustrator 25.2.1, SVG Export Plug-In . SVG Version: 6.00 Build 0)  -->
<svg version="1.1" id="Layer_1" xmlns="http://www.w3.org/2000/svg" xmlns:xlink="http://www.w3.org/1999/xlink" x="0px" y="0px"
	 viewBox="0 0 258.3 266" style="enable-background:new 0 0 258.3 266;" xml:space="preserve">
<style type="text/css">
	.st0{clip-path:url(#SVGID_2_);}
	.st1{clip-path:url(#SVGID_4_);}
	.st2{clip-path:url(#SVGID_6_);}
	.st3{clip-path:url(#SVGID_8_);}
	.st4{fill:#FF6C0C;}
	.st5{fill:#003262;}
</style>
<g>
	<g>
		<defs>
			<rect id="SVGID_1_" x="55.3" y="46.7" width="42.7" height="44"/>
		</defs>
		<clipPath id="SVGID_2_">
			<use xlink:href="#SVGID_1_"  style="overflow:visible;"/>
		</clipPath>
		<g class="st0">
			<g>
				<g>
					<defs>
						
							<rect id="SVGID_3_" x="8.5" y="3.5" transform="matrix(0.14 -0.9902 0.9902 0.14 -18.511 243.397)" width="244.8" height="257.7"/>
					</defs>
					<clipPath id="SVGID_4_">
						<use xlink:href="#SVGID_3_"  style="overflow:visible;"/>
					</clipPath>
					<g class="st1">
						<g>
							<g>
								<defs>
									
										<rect id="SVGID_5_" x="8.5" y="3.5" transform="matrix(0.14 -0.9902 0.9902 0.14 -18.511 243.397)" width="244.8" height="257.7"/>
								</defs>
								<clipPath id="SVGID_6_">
									<use xlink:href="#SVGID_5_"  style="overflow:visible;"/>
								</clipPath>
								<g class="st2">
									<g>
										<g>
											<defs>
												
													<rect id="SVGID_7_" x="8.5" y="3.5" transform="matrix(0.14 -0.9902 0.9902 0.14 -18.511 243.397)" width="244.8" height="257.7"/>
											</defs>
											<clipPath id="SVGID_8_">
												<use xlink:href="#SVGID_7_"  style="overflow:visible;"/>
											</clipPath>
											<g class="st3">
												<path d="M56,65.7c-0.8,5.8,0.6,10.9,3.9,15.7c3.6,4.6,8,7.3,13.8,8.2c5.8,0.8,10.8-0.6,15.5-4c4.8-3.6,7.5-8.1,8.4-13.9
													c0.8-5.8-0.6-10.9-4.2-15.7s-8-7.3-13.8-8.2c-5.8-0.8-10.7,0.4-15.5,4C59.6,55.5,56.8,59.9,56,65.7z M64.1,78.2
													c-2.4-3.6-3.5-7.5-2.9-11.7s2.7-7.7,6-10.5c3.6-2.7,7.2-3.6,11.6-2.9c4.4,0.6,7.9,2.5,10.3,6.1
													c2.7,3.6,3.7,7.5,3.1,11.8c-0.6,4.2-2.7,7.7-6.3,10.4c-3.3,2.5-7.2,3.6-11.6,2.9C70.3,83.7,66.8,81.6,64.1,78.2z"/>
											</g>
										</g>
									</g>
								</g>
							</g>
						</g>
					</g>
				</g>
			</g>
		</g>
	</g>
</g>
<path class="st4" d="M143.3,67.8c-5.4-1.3-11.1-2.7-16.8-4c-0.2-0.8-0.3-1.7-0.4-2.5c-0.2-2.5-0.7-4.7-1.4-6.9c-0.5-2-1.3-4-2.4-6
	c0.3,0,0.3,0,0.3-0.2c4.3-3.7,8.6-7.7,12.6-11.7c-0.4-0.9-0.8-1.7-1.5-2.9c-1.1-1.8-2.4-3.6-3.8-5.1c-2-2.7-4.3-5.5-6.9-8
	c-5,3.1-9.9,6.1-14.6,9.3h-0.3c-1.2-1-2.7-2-4.1-3c-2-1.1-3.9-2.4-5.9-3.3c-0.3,0-0.5-0.1-0.5-0.3c-1-0.2-1.8-0.5-2.3-0.9
	c0.3-5.9,0.6-11.8,0.9-17.4C93.7,4,91,3.6,88.5,3l-4.4-0.6c-2.7-0.1-5.3-0.5-8-0.3c-1.3,5.5-2.7,11.2-4,17c-0.8,0.2-1.6,0.3-2.4,0.2
	c-2.5,0.5-4.9,0.9-7.4,1.6c-1.7,0.6-3.7,1.4-5.3,1.9c-3.7-4.1-7.6-8.4-11.5-12.8h-0.3c-5.8,3.2-10.9,7.4-15.9,12.3h0.3
	c2.8,5,5.8,10,8.8,14.7c-1.3,1.7-2.3,3.2-3.3,4.7c-1.3,2-2.7,3.9-3.6,6.2c-0.4,0.8-0.7,1.5-0.9,2.3c-5.8-0.3-11.7-0.6-17.5-0.6
	c-0.9,2.6-1.3,5.2-1.9,8.1L10.6,62c-0.1,2.7-0.4,5.1-0.3,7.5c5.4,1.6,11.1,2.9,16.8,4c-0.2,1.1,0,1.9,0.1,3c0,0.3-0.1,0.5,0.1,0.8
	c0.2,2.2,1,4.5,1.7,6.7c0.5,2,1.1,3.7,1.9,5.4c-4.3,4-8.3,7.7-12.6,11.7l-0.3,0.2c0.6,1.2,1.3,2.3,1.9,3.2c1,2,2.4,3.8,3.8,5.4
	c1.8,2.7,4.1,4.9,6.4,7.4V117c4.9-2.8,9.6-5.9,14.6-9c1.4,1.3,3.1,2.6,4.6,3.6c1.9,1.4,4.2,2.5,6.2,3.3c1,0.7,2,1.1,2.8,1.2
	c-0.3,5.9-0.6,11.8-0.6,17.5c2.5,0.9,5.1,1.5,8,1.9c3.9,0.6,7.9,0.8,11.7,0.6c1.3-5.5,2.6-11,4-16.7c1,0.1,2.1,0,3-0.4
	c2.4-0.2,4.6-0.7,7.1-1.4c2-0.8,3.9-1.3,5.7-2.4c3.9,4.3,7.6,8.6,11.5,12.7c6.1-3.2,11.4-7.3,16.1-12.3h-0.3
	c-2.8-4.7-5.8-9.7-8.9-14.5v-0.3c1-1.2,2-2.7,3-3.9c1.4-2.2,2.8-4.7,3.7-7c0.4-1,0.8-1.8,1.2-2.5c5.6,0.2,11.4,0.5,17.2,0.5
	c0.6-2.3,1.2-4.7,1.6-7.3l0.6-4C143.3,73.7,143.5,70.7,143.3,67.8z"/>
<path class="st5" d="M232.6,180.4c0.4-3.2,0.6-6.1,0.5-9.1c-0.2-2.7-0.6-5.5-1-8.2c0,0,0.3,0,0.3-0.2c6.6-3.4,13.3-7,19.9-10.4
	c-0.6-1.4-0.9-2.8-1.3-4c-0.7-2.8-1.6-5.4-2.6-7.9c-1.8-4.3-3.9-8.4-6.3-12.2c-7.2,1.9-14.2,4.2-21.4,6.4c-1.3-1.8-2.7-3.3-4.1-5.2
	c-2.1-2.2-4.4-4.4-6.6-6.3c-0.3,0-0.5-0.3-0.7-0.4c-0.7-0.6-1.7-1.3-2.4-2c2.4-7.2,4.4-14.5,6.8-21.7c-2.9-1.8-5.9-3.3-9.2-4.8
	c-0.7-0.4-1.5-0.8-2.5-1.2c-0.8-0.4-1.5-0.5-2.5-1.2c-3.3-1-6.6-2.3-9.7-3c-3.8,6.5-7.2,13.3-10.8,19.8l-3.1-0.4
	c-3.1-0.4-6.6-0.7-9.8-0.3c-2.4-0.1-4.9,0.4-7.3,0.6c-3.3-6.7-6.9-13.4-10.5-19.8v-0.3c-8.3,2.1-16.2,5.3-23.8,10.1
	c1.9,7.3,4.1,14.3,6.3,21.4c-2.1,1.6-4.2,3.2-6,4.8c-2.2,2.1-4.3,4.2-6,6.7c-0.9,0.7-1.6,1.7-2.2,2.4c-7.2-2.1-14.3-4.5-21.5-6.5
	c-1.8,3-3.5,6.2-5.1,9.5c-0.2,1-0.6,2-0.8,2.8c-0.7,1-1,1.7-1.2,2.5c-1.2,3.1-2.2,6.2-3.2,9.3c6.6,3.9,13.1,7.2,19.6,10.6l-0.7,4.8
	c-0.2,3.2-0.3,6.2-0.2,9.1c-0.1,2.4,0.4,4.9,0.8,7.4c-6.6,3.4-13.3,7-19.6,10.4l-0.3,0.2c0.3,1.7,0.6,3.3,1.2,4.8
	c0.7,2.8,1.6,5.4,2.9,8c1.3,4,3.2,7.7,5.6,11.3h0.3c7-2.2,13.9-4.2,20.9-6.5c1.6,2.1,2.9,3.9,4.8,5.8c1.8,2.4,4.1,4.6,6.5,6.6
	c0.9,0.9,1.9,1.6,3.1,2.3c-2.4,7.2-4.7,14.4-6.8,21.7c2.9,1.8,5.9,3.5,9.1,5.1c5.1,1.8,9.9,3.6,14.8,4.8l10.8-19.5l3.7,0.5
	c2.9,0.4,6,0.6,9.3,0.2c2.7,0.1,5.4-0.3,8.1-0.7c3.3,6.7,6.7,13.1,10.3,19.8c8.3-2.1,16.2-5.5,23.8-9.9v-0.3
	c-2.2-7.1-4.1-14.1-6.3-21.4c1.8-1.4,3.3-2.8,5.1-4.1c2.4-2.1,4.7-4.7,6.9-7.7c0.6-0.7,1.3-1.7,2.2-2.7c6.9,2.3,14,4.4,21.2,6.5
	c1.7-2.7,3.2-5.5,4.4-8.6c0.4-0.8,1.1-2.3,2-4.8c1.6-3.6,2.6-7.2,3.6-10.6c-6.7-3.9-13.1-7.5-19.8-10.9L232.6,180.4z"/>
</svg>
