<svg xmlns="http://www.w3.org/2000/svg" xmlns:xlink="http://www.w3.org/1999/xlink" width="800" zoomAndPan="magnify" viewBox="0 0 600 599.999999" height="800" preserveAspectRatio="xMidYMid meet" version="1.0"><defs><g/><clipPath id="2abe75acfa"><path d="M 47.464844 207 L 152 207 L 152 358.339844 L 47.464844 358.339844 Z M 47.464844 207 " clip-rule="nonzero"/></clipPath><clipPath id="322bde0756"><path d="M 428 102.589844 L 482 102.589844 L 482 157 L 428 157 Z M 428 102.589844 " clip-rule="nonzero"/></clipPath><clipPath id="f26ea3ccf4"><path d="M 458 137 L 525.964844 137 L 525.964844 206 L 458 206 Z M 458 137 " clip-rule="nonzero"/></clipPath></defs><g clip-path="url(#2abe75acfa)"><path fill="#003262" d="M 47.535156 210.304688 L 69.4375 210.304688 L 69.4375 228.246094 C 77.128906 214.578125 89.3125 207.847656 105.765625 207.847656 C 119.441406 207.847656 130.445312 212.226562 138.886719 220.769531 C 147.328125 229.316406 151.601562 241.917969 151.601562 258.152344 C 151.601562 268.300781 149.574219 277.164062 145.40625 284.960938 C 143.453125 288.660156 141.042969 292.03125 138.179688 295.074219 C 135.3125 298.121094 132.09375 300.730469 128.523438 302.90625 C 124.929688 305.015625 121.121094 306.605469 117.09375 307.675781 C 113.066406 308.746094 108.96875 309.257812 104.804688 309.207031 C 96.683594 309.207031 89.632812 307.820312 83.648438 304.933594 C 80.765625 303.589844 78.132812 301.863281 75.75 299.753906 C 73.371094 297.644531 71.335938 295.242188 69.652344 292.546875 L 69.863281 358.339844 L 47.535156 358.339844 Z M 99.355469 289.980469 C 108.542969 289.980469 115.59375 287.097656 120.511719 281.222656 C 125.425781 275.351562 127.882812 267.875 127.882812 258.792969 C 127.882812 249.183594 125.425781 241.597656 120.617188 235.9375 C 115.808594 230.277344 108.648438 227.394531 99.355469 227.394531 C 96.863281 227.394531 94.414062 227.710938 92.007812 228.34375 C 89.597656 228.976562 87.3125 229.90625 85.144531 231.132812 C 82.933594 232.378906 80.929688 233.902344 79.132812 235.699219 C 77.335938 237.492188 75.816406 239.496094 74.566406 241.707031 C 73.242188 244.144531 72.257812 246.714844 71.605469 249.410156 C 70.953125 252.109375 70.65625 254.84375 70.71875 257.621094 L 70.71875 259.113281 C 70.664062 261.921875 70.960938 264.691406 71.613281 267.425781 C 72.265625 270.15625 73.25 272.761719 74.566406 275.242188 C 75.164062 276.359375 75.832031 277.425781 76.574219 278.453125 C 77.316406 279.476562 78.125 280.445312 78.996094 281.359375 C 79.871094 282.273438 80.804688 283.125 81.792969 283.910156 C 82.78125 284.699219 83.820312 285.414062 84.90625 286.0625 C 85.996094 286.707031 87.121094 287.277344 88.285156 287.769531 C 89.449219 288.265625 90.640625 288.675781 91.863281 289.007812 C 93.082031 289.339844 94.320312 289.585938 95.574219 289.75 C 96.828125 289.914062 98.089844 289.992188 99.355469 289.980469 Z M 99.355469 289.980469 " fill-opacity="1" fill-rule="nonzero"/></g><path fill="#003262" d="M 218.488281 309.207031 C 214.261719 309.253906 210.101562 308.753906 206.007812 307.703125 C 201.910156 306.652344 198.023438 305.089844 194.339844 303.011719 C 190.636719 300.914062 187.28125 298.359375 184.269531 295.351562 C 181.261719 292.339844 178.707031 288.984375 176.605469 285.28125 C 172.222656 277.59375 169.980469 268.621094 169.980469 258.367188 C 169.980469 248.113281 171.902344 239.355469 175.75 231.773438 C 177.597656 228.082031 179.929688 224.726562 182.746094 221.710938 C 185.566406 218.691406 188.753906 216.136719 192.3125 214.042969 C 199.46875 209.769531 207.910156 207.742188 217.632812 207.742188 C 223.105469 207.679688 228.375 208.675781 233.449219 210.730469 C 237.996094 212.4375 242.128906 214.859375 245.84375 217.996094 C 249.261719 220.878906 251.503906 223.761719 252.574219 226.539062 L 253 210.304688 L 274.796875 210.304688 L 274.796875 307.070312 L 253.320312 307.070312 L 252.894531 289.980469 C 250.542969 295.003906 246.164062 299.488281 239.859375 303.332031 C 236.652344 305.3125 233.230469 306.804688 229.59375 307.800781 C 225.960938 308.800781 222.257812 309.269531 218.488281 309.207031 Z M 222.335938 290.195312 C 224.214844 290.238281 226.078125 290.085938 227.929688 289.742188 C 229.777344 289.398438 231.570312 288.867188 233.308594 288.148438 C 235.046875 287.433594 236.691406 286.542969 238.246094 285.484375 C 239.796875 284.425781 241.226562 283.21875 242.53125 281.863281 C 247.980469 276.3125 250.757812 269.046875 250.757812 259.96875 L 250.757812 258.582031 C 250.804688 255.757812 250.503906 252.972656 249.851562 250.222656 C 249.203125 247.472656 248.222656 244.847656 246.910156 242.347656 C 245.726562 240.039062 244.253906 237.933594 242.496094 236.03125 C 240.734375 234.125 238.753906 232.492188 236.546875 231.132812 C 234.394531 229.800781 232.105469 228.792969 229.671875 228.101562 C 227.238281 227.414062 224.757812 227.070312 222.230469 227.074219 C 213.253906 227.074219 206.203125 229.957031 201.285156 235.832031 C 196.585938 241.8125 194.128906 249.289062 194.128906 258.582031 C 194.128906 267.875 196.585938 275.671875 201.394531 281.4375 C 206.203125 287.207031 213.296875 290.195312 222.378906 290.195312 Z M 222.335938 290.195312 " fill-opacity="1" fill-rule="nonzero"/><path fill="#003262" d="M 350.660156 309.207031 C 346.15625 309.28125 341.71875 308.792969 337.339844 307.742188 C 332.960938 306.695312 328.78125 305.117188 324.800781 303.011719 C 320.96875 300.945312 317.5 298.386719 314.394531 295.335938 C 311.289062 292.285156 308.667969 288.863281 306.53125 285.070312 C 302.042969 277.238281 299.800781 268.050781 299.800781 257.511719 C 299.800781 247.578125 301.828125 238.820312 305.996094 231.238281 C 308.019531 227.570312 310.523438 224.261719 313.503906 221.316406 C 316.484375 218.371094 319.824219 215.914062 323.519531 213.9375 C 331 209.875 339.761719 207.847656 349.589844 207.847656 C 356.203125 207.707031 362.648438 208.667969 368.929688 210.730469 C 373.632812 212.242188 377.871094 214.589844 381.644531 217.78125 L 371.496094 236.152344 C 365.617188 230.277344 358.886719 227.285156 351.40625 227.285156 C 342.433594 227.285156 335.59375 230.0625 330.890625 235.511719 C 326.191406 240.957031 323.839844 248.328125 323.839844 257.40625 C 323.839844 267.875 326.296875 275.882812 331.105469 281.652344 C 335.914062 287.417969 342.753906 290.304688 351.40625 290.304688 C 355.746094 290.316406 359.984375 289.675781 364.121094 288.378906 C 367.585938 287.441406 370.792969 285.945312 373.738281 283.894531 L 381.964844 299.914062 C 377.988281 302.722656 373.679688 304.859375 369.035156 306.324219 C 363.074219 308.320312 356.949219 309.28125 350.660156 309.207031 Z M 350.660156 309.207031 " fill-opacity="1" fill-rule="nonzero"/><path fill="#003262" d="M 412.203125 210.175781 L 412.203125 210.292969 L 395.109375 210.292969 L 395.109375 228.886719 L 412.203125 228.886719 L 412.203125 307.167969 L 435.175781 307.167969 L 435.175781 235.125 Z M 412.203125 210.175781 " fill-opacity="1" fill-rule="nonzero"/><path fill="#ff6c0c" d="M 435.175781 228.886719 L 457.507812 228.886719 L 457.507812 210.398438 L 435.175781 210.398438 L 435.175781 165.863281 L 412.203125 170.890625 L 412.203125 210.175781 L 435.175781 235.125 Z M 435.175781 228.886719 " fill-opacity="1" fill-rule="nonzero"/><path fill="#ff6c0c" d="M 501.410156 307.0625 L 501.410156 210.292969 L 477.796875 210.292969 L 477.796875 281.417969 Z M 501.410156 307.0625 " fill-opacity="1" fill-rule="nonzero"/><path fill="#003262" d="M 501.410156 307.0625 L 477.796875 281.417969 L 477.796875 307.0625 Z M 501.410156 307.0625 " fill-opacity="1" fill-rule="nonzero"/><g clip-path="url(#322bde0756)"><path fill="#ff6c0c" d="M 475.03125 127.292969 C 474.921875 126.972656 474.921875 126.652344 474.816406 126.332031 C 474.699219 125.394531 474.519531 124.46875 474.28125 123.554688 C 474.035156 122.707031 473.714844 121.886719 473.320312 121.097656 C 473.425781 121.097656 473.425781 121.097656 473.425781 120.992188 C 475.136719 119.496094 476.847656 117.894531 478.449219 116.292969 C 478.234375 115.972656 478.128906 115.542969 477.808594 115.117188 C 477.371094 114.398438 476.871094 113.71875 476.3125 113.089844 C 475.472656 111.945312 474.546875 110.875 473.535156 109.882812 C 471.503906 111.164062 469.582031 112.339844 467.65625 113.621094 L 467.550781 113.621094 C 467.058594 113.171875 466.527344 112.777344 465.949219 112.449219 C 465.1875 111.980469 464.402344 111.550781 463.597656 111.164062 C 463.488281 111.164062 463.382812 111.164062 463.382812 111.058594 C 463.050781 110.984375 462.730469 110.878906 462.421875 110.738281 L 462.742188 103.6875 C 461.671875 103.367188 460.710938 103.15625 459.644531 102.941406 L 457.828125 102.726562 C 456.757812 102.726562 455.691406 102.515625 454.621094 102.621094 C 454.085938 104.863281 453.554688 107.105469 453.019531 109.457031 C 452.703125 109.546875 452.382812 109.582031 452.058594 109.5625 C 451.050781 109.726562 450.050781 109.941406 449.066406 110.203125 C 448.425781 110.417969 447.570312 110.738281 446.929688 110.953125 C 445.433594 109.351562 443.832031 107.535156 442.335938 105.824219 L 442.226562 105.824219 C 439.875 107.183594 437.738281 108.820312 435.816406 110.738281 L 435.921875 110.738281 C 436.992188 112.769531 438.273438 114.796875 439.449219 116.71875 C 438.949219 117.3125 438.519531 117.953125 438.167969 118.640625 C 437.574219 119.425781 437.113281 120.28125 436.777344 121.207031 C 436.621094 121.511719 436.515625 121.832031 436.457031 122.167969 C 434.105469 122.058594 431.757812 121.953125 429.40625 121.953125 C 429.085938 123.019531 428.871094 124.089844 428.65625 125.15625 L 428.445312 126.867188 C 428.355469 127.863281 428.320312 128.859375 428.335938 129.855469 C 430.554688 130.503906 432.796875 131.039062 435.070312 131.460938 C 435.015625 131.851562 435.015625 132.242188 435.070312 132.632812 C 435.054688 132.757812 435.089844 132.863281 435.175781 132.953125 C 435.339844 133.855469 435.550781 134.746094 435.816406 135.625 C 436 136.359375 436.25 137.070312 436.566406 137.761719 L 431.542969 142.460938 L 431.4375 142.566406 C 431.660156 143.007812 431.910156 143.433594 432.183594 143.847656 C 432.597656 144.621094 433.09375 145.332031 433.679688 145.984375 C 434.472656 147.035156 435.328125 148.03125 436.242188 148.976562 L 436.242188 148.867188 C 438.273438 147.695312 440.089844 146.519531 442.121094 145.238281 C 442.699219 145.765625 443.304688 146.265625 443.9375 146.734375 C 444.710938 147.242188 445.53125 147.671875 446.394531 148.015625 C 446.71875 148.230469 447.078125 148.375 447.460938 148.441406 C 447.355469 150.792969 447.25 153.140625 447.25 155.492188 C 448.292969 155.851562 449.359375 156.101562 450.453125 156.238281 C 452.015625 156.46875 453.582031 156.539062 455.15625 156.453125 C 455.691406 154.207031 456.222656 152.074219 456.757812 149.722656 C 457.160156 149.800781 457.550781 149.765625 457.933594 149.617188 C 458.894531 149.507812 459.75 149.296875 460.820312 149.082031 C 461.59375 148.828125 462.34375 148.507812 463.0625 148.121094 C 464.664062 149.828125 466.160156 151.539062 467.65625 153.246094 C 470.109375 151.980469 472.28125 150.339844 474.175781 148.335938 L 474.066406 148.335938 C 472.890625 146.410156 471.71875 144.382812 470.542969 142.460938 L 470.542969 142.351562 C 470.96875 141.820312 471.289062 141.285156 471.71875 140.75 C 472.320312 139.84375 472.820312 138.882812 473.214844 137.867188 C 473.382812 137.523438 473.527344 137.167969 473.640625 136.800781 C 475.882812 136.90625 478.234375 137.011719 480.585938 137.011719 C 480.800781 136.050781 481.011719 135.089844 481.226562 134.023438 L 481.441406 132.421875 C 481.617188 131.25 481.6875 130.078125 481.652344 128.894531 C 479.625 128.363281 477.273438 127.828125 475.03125 127.292969 Z M 475.03125 127.292969 " fill-opacity="1" fill-rule="nonzero"/></g><g clip-path="url(#f26ea3ccf4)"><path fill="#ff6c0c" d="M 517.980469 174.289062 C 518.15625 173.085938 518.226562 171.875 518.195312 170.65625 C 518.089844 169.589844 517.980469 168.414062 517.769531 167.347656 C 517.839844 167.347656 517.875 167.3125 517.875 167.238281 L 525.890625 163.074219 C 525.675781 162.539062 525.566406 161.898438 525.355469 161.472656 C 525.0625 160.382812 524.707031 159.3125 524.285156 158.269531 C 523.558594 156.5625 522.703125 154.925781 521.722656 153.355469 C 518.835938 154.101562 516.058594 155.0625 513.066406 155.917969 C 512.53125 155.171875 512 154.53125 511.464844 153.886719 C 510.609375 153.035156 509.648438 152.074219 508.792969 151.324219 C 508.6875 151.324219 508.578125 151.21875 508.472656 151.21875 C 508.152344 151.003906 507.832031 150.683594 507.511719 150.46875 C 508.472656 147.585938 509.328125 144.597656 510.289062 141.710938 C 509.085938 140.984375 507.839844 140.34375 506.550781 139.789062 C 506.230469 139.683594 505.910156 139.46875 505.589844 139.363281 C 505.246094 139.265625 504.925781 139.121094 504.625 138.933594 C 503.335938 138.445312 502.019531 138.054688 500.671875 137.761719 C 499.175781 140.324219 497.789062 143.101562 496.292969 145.769531 L 495.011719 145.558594 C 493.695312 145.359375 492.378906 145.324219 491.054688 145.449219 C 490.089844 145.46875 489.128906 145.539062 488.171875 145.664062 C 486.890625 142.996094 485.394531 140.324219 483.898438 137.652344 L 483.898438 137.546875 C 480.484375 138.40625 477.277344 139.757812 474.28125 141.605469 C 475.03125 144.453125 475.882812 147.335938 476.847656 150.257812 C 475.992188 150.898438 475.136719 151.539062 474.386719 152.179688 C 473.511719 153.019531 472.695312 153.910156 471.929688 154.851562 C 471.617188 155.144531 471.332031 155.464844 471.078125 155.8125 C 468.191406 154.957031 465.304688 153.996094 462.421875 153.140625 C 461.660156 154.378906 460.980469 155.660156 460.390625 156.984375 C 460.179688 157.09375 460.070312 157.519531 459.964844 157.839844 C 459.695312 158.144531 459.554688 158.503906 459.535156 158.910156 C 459.003906 160.191406 458.683594 161.363281 458.253906 162.648438 C 460.925781 164.25 463.488281 165.53125 466.160156 166.917969 L 465.949219 168.839844 C 465.839844 170.125 465.839844 171.296875 465.839844 172.472656 C 465.847656 173.480469 465.953125 174.476562 466.160156 175.464844 C 463.488281 176.851562 460.820312 178.242188 458.253906 179.628906 L 458.148438 179.734375 C 458.226562 180.390625 458.371094 181.03125 458.574219 181.660156 C 458.855469 182.765625 459.246094 183.835938 459.75 184.863281 C 460.304688 186.488281 461.050781 188.019531 461.992188 189.457031 L 462.101562 189.457031 C 464.878906 188.601562 467.65625 187.746094 470.542969 186.890625 C 471.125 187.722656 471.765625 188.507812 472.464844 189.242188 C 473.25 190.238281 474.136719 191.128906 475.136719 191.910156 C 475.519531 192.292969 475.945312 192.613281 476.417969 192.875 C 475.457031 195.757812 474.496094 198.640625 473.640625 201.632812 C 474.816406 202.371094 476.027344 203.046875 477.273438 203.660156 C 479.304688 204.410156 481.226562 205.050781 483.257812 205.582031 L 487.636719 197.679688 L 489.132812 197.894531 C 490.375 198.089844 491.621094 198.125 492.871094 198 C 493.988281 197.996094 495.089844 197.886719 496.183594 197.679688 C 497.46875 200.351562 498.855469 202.914062 500.351562 205.691406 C 503.722656 204.777344 506.929688 203.460938 509.96875 201.738281 L 509.96875 201.632812 C 509.113281 198.746094 508.257812 195.96875 507.402344 192.980469 C 508.128906 192.46875 508.804688 191.898438 509.433594 191.269531 C 510.46875 190.335938 511.394531 189.304688 512.210938 188.171875 C 512.425781 187.851562 512.746094 187.53125 513.066406 187.105469 C 515.84375 188.066406 518.730469 188.921875 521.613281 189.667969 C 522.324219 188.585938 522.929688 187.445312 523.429688 186.25 C 523.539062 185.929688 523.859375 185.289062 524.285156 184.328125 C 524.878906 182.9375 525.378906 181.515625 525.78125 180.054688 C 523.109375 178.453125 520.546875 177.066406 517.769531 175.675781 Z M 517.980469 174.289062 " fill-opacity="1" fill-rule="nonzero"/></g><g fill="#003262" fill-opacity="1"><g transform="translate(201.829575, 417.846122)"><g><path d="M 28 -14.515625 C 29.84375 -14.515625 30.96875 -14.285156 31.375 -13.828125 C 31.789062 -13.378906 32 -12.425781 32 -10.96875 L 32 -3.421875 C 32 -1.953125 31.816406 -1.015625 31.453125 -0.609375 C 31.085938 -0.203125 29.9375 0 28 0 L 20.0625 0 C 19.03125 0 18.332031 -0.203125 17.96875 -0.609375 C 17.601562 -1.015625 17.421875 -1.953125 17.421875 -3.421875 L 17.421875 -10.96875 C 17.421875 -12.425781 17.625 -13.378906 18.03125 -13.828125 C 18.4375 -14.285156 19.566406 -14.515625 21.421875 -14.515625 Z M 28 -14.515625 "/></g></g></g><g fill="#003262" fill-opacity="1"><g transform="translate(251.229428, 417.846122)"><g><path d="M 28.125 -9.484375 L 84.5625 -9.484375 L 84.5625 -58.890625 L 28.125 -58.890625 Z M 16.765625 -52.0625 C 16.765625 -58.25 17.875 -62.484375 20.09375 -64.765625 C 22.3125 -67.046875 26.535156 -68.1875 32.765625 -68.1875 L 79.921875 -68.1875 C 86.066406 -68.1875 90.25 -67.054688 92.46875 -64.796875 C 94.6875 -62.535156 95.796875 -58.289062 95.796875 -52.0625 L 95.796875 -16.125 C 95.796875 -9.84375 94.6875 -5.582031 92.46875 -3.34375 C 90.25 -1.113281 86.066406 0 79.921875 0 L 32.765625 0 C 26.535156 0 22.3125 -1.140625 20.09375 -3.421875 C 17.875 -5.703125 16.765625 -9.9375 16.765625 -16.125 Z M 16.765625 -52.0625 "/></g></g></g><g fill="#003262" fill-opacity="1"><g transform="translate(363.894645, 417.846122)"><g><path d="M 68.1875 -59.34375 L 29.09375 -59.34375 L 29.09375 -35.421875 L 68.1875 -35.421875 C 71.019531 -35.421875 72.953125 -35.9375 73.984375 -36.96875 C 75.015625 -38 75.53125 -39.800781 75.53125 -42.375 L 75.53125 -52.3125 C 75.53125 -54.894531 75.003906 -56.710938 73.953125 -57.765625 C 72.898438 -58.816406 70.976562 -59.34375 68.1875 -59.34375 Z M 17.671875 0 L 17.671875 -68.1875 L 72.640625 -68.1875 C 77.753906 -68.1875 81.4375 -67.140625 83.6875 -65.046875 C 85.945312 -62.960938 87.078125 -59.597656 87.078125 -54.953125 L 87.078125 -39.734375 C 87.078125 -35.128906 85.945312 -31.785156 83.6875 -29.703125 C 81.4375 -27.617188 77.753906 -26.578125 72.640625 -26.578125 L 62.640625 -26.578125 L 93.796875 0 L 76.890625 0 L 49.15625 -26.578125 L 29.09375 -26.578125 L 29.09375 0 Z M 17.671875 0 "/></g></g></g><g fill="#003262" fill-opacity="1"><g transform="translate(464.564596, 417.846122)"><g><path d="M 81.53125 -58.890625 L 28.125 -58.890625 L 28.125 -9.484375 L 81.53125 -9.484375 L 81.53125 -29.484375 L 53.921875 -29.484375 L 53.921875 -38.1875 L 92.890625 -38.1875 L 92.890625 -16.125 C 92.890625 -9.882812 91.769531 -5.632812 89.53125 -3.375 C 87.300781 -1.125 83.085938 0 76.890625 0 L 32.765625 0 C 26.535156 0 22.3125 -1.140625 20.09375 -3.421875 C 17.875 -5.703125 16.765625 -9.9375 16.765625 -16.125 L 16.765625 -52.0625 C 16.765625 -58.25 17.875 -62.484375 20.09375 -64.765625 C 22.3125 -67.046875 26.535156 -68.1875 32.765625 -68.1875 L 76.890625 -68.1875 C 82.992188 -68.1875 87.1875 -67.078125 89.46875 -64.859375 C 91.75 -62.648438 92.890625 -58.640625 92.890625 -52.828125 L 92.890625 -51.15625 L 81.53125 -48.890625 Z M 81.53125 -58.890625 "/></g></g></g></svg>